<mxfile host="app.diagrams.net" modified="2024-01-16T16:27:49.506Z" agent="Mozilla/5.0 (Windows NT 10.0; Win64; x64) AppleWebKit/537.36 (KHTML, like Gecko) Chrome/120.0.0.0 Safari/537.36 Edg/120.0.0.0" etag="8naAaLDuVTCCrASA6QWV" version="22.1.18" type="device">
  <diagram name="ページ1" id="Zp-V8851B6230g78PxDg">
    <mxGraphModel dx="1456" dy="667" grid="1" gridSize="10" guides="1" tooltips="1" connect="1" arrows="1" fold="1" page="1" pageScale="1" pageWidth="827" pageHeight="1169" math="0" shadow="0">
      <root>
        <mxCell id="0" />
        <mxCell id="1" parent="0" />
        <mxCell id="2nSmwBfmjp6PG5sgdiVy-14" style="edgeStyle=orthogonalEdgeStyle;rounded=0;orthogonalLoop=1;jettySize=auto;html=1;exitX=0.5;exitY=1;exitDx=0;exitDy=0;entryX=0.5;entryY=0;entryDx=0;entryDy=0;" edge="1" parent="1" source="xdt5J9YczZUY0hBb_yy5-1" target="2nSmwBfmjp6PG5sgdiVy-13">
          <mxGeometry relative="1" as="geometry" />
        </mxCell>
        <mxCell id="xdt5J9YczZUY0hBb_yy5-1" value="1. 歩きスマホは危険ですので、おやめください" style="rounded=1;whiteSpace=wrap;html=1;" parent="1" vertex="1">
          <mxGeometry x="290" width="310" height="30" as="geometry" />
        </mxCell>
        <mxCell id="xdt5J9YczZUY0hBb_yy5-2" value="" style="endArrow=classic;html=1;rounded=0;exitX=0;exitY=0.5;exitDx=0;exitDy=0;entryX=0.128;entryY=0.025;entryDx=0;entryDy=0;entryPerimeter=0;" parent="1" source="2nSmwBfmjp6PG5sgdiVy-13" edge="1" target="xdt5J9YczZUY0hBb_yy5-4">
          <mxGeometry width="50" height="50" relative="1" as="geometry">
            <mxPoint x="260" y="180" as="sourcePoint" />
            <mxPoint x="190" y="440" as="targetPoint" />
            <Array as="points">
              <mxPoint x="190" y="70" />
            </Array>
          </mxGeometry>
        </mxCell>
        <mxCell id="xdt5J9YczZUY0hBb_yy5-4" value="2. ご協力ありがとうございます。" style="rounded=1;whiteSpace=wrap;html=1;" parent="1" vertex="1">
          <mxGeometry x="150" y="435" width="290" height="30" as="geometry" />
        </mxCell>
        <mxCell id="xdt5J9YczZUY0hBb_yy5-9" value="" style="endArrow=classic;html=1;rounded=0;" parent="1" edge="1">
          <mxGeometry width="50" height="50" relative="1" as="geometry">
            <mxPoint x="450.5" y="80" as="sourcePoint" />
            <mxPoint x="450" y="130" as="targetPoint" />
          </mxGeometry>
        </mxCell>
        <mxCell id="vtQGRSDcGjtU6G57dhHK-16" style="edgeStyle=orthogonalEdgeStyle;rounded=0;orthogonalLoop=1;jettySize=auto;html=1;exitX=1;exitY=0.5;exitDx=0;exitDy=0;" parent="1" source="vtQGRSDcGjtU6G57dhHK-12" edge="1">
          <mxGeometry relative="1" as="geometry">
            <mxPoint x="640" y="149.83333333333337" as="targetPoint" />
          </mxGeometry>
        </mxCell>
        <mxCell id="vtQGRSDcGjtU6G57dhHK-18" style="edgeStyle=orthogonalEdgeStyle;rounded=0;orthogonalLoop=1;jettySize=auto;html=1;exitX=0.5;exitY=1;exitDx=0;exitDy=0;" parent="1" source="vtQGRSDcGjtU6G57dhHK-12" edge="1">
          <mxGeometry relative="1" as="geometry">
            <mxPoint x="450" y="200" as="targetPoint" />
          </mxGeometry>
        </mxCell>
        <mxCell id="vtQGRSDcGjtU6G57dhHK-12" value="周りに人がいない場合" style="rhombus;whiteSpace=wrap;html=1;" parent="1" vertex="1">
          <mxGeometry x="300" y="130" width="300" height="40" as="geometry" />
        </mxCell>
        <mxCell id="vtQGRSDcGjtU6G57dhHK-17" value="そこの柱の裏から急に人が飛び出してくるかもしれませんよ" style="rounded=1;whiteSpace=wrap;html=1;" parent="1" vertex="1">
          <mxGeometry x="640" y="135" width="330" height="30" as="geometry" />
        </mxCell>
        <mxCell id="vtQGRSDcGjtU6G57dhHK-24" value="" style="edgeStyle=orthogonalEdgeStyle;rounded=0;orthogonalLoop=1;jettySize=auto;html=1;" parent="1" source="vtQGRSDcGjtU6G57dhHK-19" target="vtQGRSDcGjtU6G57dhHK-23" edge="1">
          <mxGeometry relative="1" as="geometry" />
        </mxCell>
        <mxCell id="vtQGRSDcGjtU6G57dhHK-19" value="場所を探していて、地図アプリを使っている" style="rhombus;whiteSpace=wrap;html=1;" parent="1" vertex="1">
          <mxGeometry x="300" y="200" width="300" height="40" as="geometry" />
        </mxCell>
        <mxCell id="vtQGRSDcGjtU6G57dhHK-20" style="edgeStyle=orthogonalEdgeStyle;rounded=0;orthogonalLoop=1;jettySize=auto;html=1;exitX=1;exitY=0.5;exitDx=0;exitDy=0;" parent="1" edge="1">
          <mxGeometry relative="1" as="geometry">
            <mxPoint x="640" y="219.58333333333337" as="targetPoint" />
            <mxPoint x="600" y="219.75" as="sourcePoint" />
          </mxGeometry>
        </mxCell>
        <mxCell id="vtQGRSDcGjtU6G57dhHK-21" value="道案内なら私がしますよ。" style="rounded=1;whiteSpace=wrap;html=1;" parent="1" vertex="1">
          <mxGeometry x="640" y="205" width="330" height="30" as="geometry" />
        </mxCell>
        <mxCell id="vtQGRSDcGjtU6G57dhHK-28" value="" style="edgeStyle=orthogonalEdgeStyle;rounded=0;orthogonalLoop=1;jettySize=auto;html=1;" parent="1" source="vtQGRSDcGjtU6G57dhHK-23" target="vtQGRSDcGjtU6G57dhHK-27" edge="1">
          <mxGeometry relative="1" as="geometry" />
        </mxCell>
        <mxCell id="2nSmwBfmjp6PG5sgdiVy-7" value="" style="edgeStyle=orthogonalEdgeStyle;rounded=0;orthogonalLoop=1;jettySize=auto;html=1;" edge="1" parent="1" source="vtQGRSDcGjtU6G57dhHK-23">
          <mxGeometry relative="1" as="geometry">
            <mxPoint x="450" y="340" as="targetPoint" />
          </mxGeometry>
        </mxCell>
        <mxCell id="vtQGRSDcGjtU6G57dhHK-23" value="移動速度が速い" style="rhombus;whiteSpace=wrap;html=1;" parent="1" vertex="1">
          <mxGeometry x="300" y="270" width="300" height="40" as="geometry" />
        </mxCell>
        <mxCell id="2nSmwBfmjp6PG5sgdiVy-21" style="edgeStyle=orthogonalEdgeStyle;rounded=0;orthogonalLoop=1;jettySize=auto;html=1;exitX=1;exitY=0.5;exitDx=0;exitDy=0;entryX=1;entryY=0.5;entryDx=0;entryDy=0;" edge="1" parent="1" source="vtQGRSDcGjtU6G57dhHK-27" target="2nSmwBfmjp6PG5sgdiVy-12">
          <mxGeometry relative="1" as="geometry" />
        </mxCell>
        <mxCell id="vtQGRSDcGjtU6G57dhHK-27" value="他人をケガさせた場合、高額の賠償金を請求されるかもしれません&lt;br&gt;歩きスマホが原因の死亡事故も発生しています" style="rounded=1;whiteSpace=wrap;html=1;" parent="1" vertex="1">
          <mxGeometry x="640" y="257.5" width="330" height="65" as="geometry" />
        </mxCell>
        <mxCell id="2nSmwBfmjp6PG5sgdiVy-1" value="Yes" style="text;html=1;align=center;verticalAlign=middle;resizable=0;points=[];autosize=1;strokeColor=none;fillColor=none;" vertex="1" parent="1">
          <mxGeometry x="600" y="128" width="40" height="30" as="geometry" />
        </mxCell>
        <mxCell id="2nSmwBfmjp6PG5sgdiVy-2" value="No" style="text;html=1;align=center;verticalAlign=middle;resizable=0;points=[];autosize=1;strokeColor=none;fillColor=none;" vertex="1" parent="1">
          <mxGeometry x="414" y="170" width="40" height="30" as="geometry" />
        </mxCell>
        <mxCell id="2nSmwBfmjp6PG5sgdiVy-3" value="Yes" style="text;html=1;align=center;verticalAlign=middle;resizable=0;points=[];autosize=1;strokeColor=none;fillColor=none;" vertex="1" parent="1">
          <mxGeometry x="600" y="200" width="40" height="30" as="geometry" />
        </mxCell>
        <mxCell id="2nSmwBfmjp6PG5sgdiVy-4" value="Yes" style="text;html=1;align=center;verticalAlign=middle;resizable=0;points=[];autosize=1;strokeColor=none;fillColor=none;" vertex="1" parent="1">
          <mxGeometry x="600" y="270" width="40" height="30" as="geometry" />
        </mxCell>
        <mxCell id="2nSmwBfmjp6PG5sgdiVy-5" value="No" style="text;html=1;align=center;verticalAlign=middle;resizable=0;points=[];autosize=1;strokeColor=none;fillColor=none;" vertex="1" parent="1">
          <mxGeometry x="414" y="240" width="40" height="30" as="geometry" />
        </mxCell>
        <mxCell id="2nSmwBfmjp6PG5sgdiVy-8" style="edgeStyle=orthogonalEdgeStyle;rounded=0;orthogonalLoop=1;jettySize=auto;html=1;exitX=0.5;exitY=1;exitDx=0;exitDy=0;" edge="1" parent="1" source="vtQGRSDcGjtU6G57dhHK-27" target="vtQGRSDcGjtU6G57dhHK-27">
          <mxGeometry relative="1" as="geometry" />
        </mxCell>
        <mxCell id="2nSmwBfmjp6PG5sgdiVy-17" style="edgeStyle=orthogonalEdgeStyle;rounded=0;orthogonalLoop=1;jettySize=auto;html=1;exitX=1;exitY=0.5;exitDx=0;exitDy=0;entryX=0.5;entryY=0;entryDx=0;entryDy=0;" edge="1" parent="1" source="2nSmwBfmjp6PG5sgdiVy-10" target="2nSmwBfmjp6PG5sgdiVy-12">
          <mxGeometry relative="1" as="geometry" />
        </mxCell>
        <mxCell id="2nSmwBfmjp6PG5sgdiVy-10" value="そこの{外見的特徴}の方に行っています。" style="rounded=1;whiteSpace=wrap;html=1;" vertex="1" parent="1">
          <mxGeometry x="290" y="340" width="330" height="30" as="geometry" />
        </mxCell>
        <mxCell id="2nSmwBfmjp6PG5sgdiVy-11" value="No" style="text;html=1;align=center;verticalAlign=middle;resizable=0;points=[];autosize=1;strokeColor=none;fillColor=none;" vertex="1" parent="1">
          <mxGeometry x="414" y="310" width="40" height="30" as="geometry" />
        </mxCell>
        <mxCell id="2nSmwBfmjp6PG5sgdiVy-28" style="edgeStyle=orthogonalEdgeStyle;rounded=0;orthogonalLoop=1;jettySize=auto;html=1;exitX=0;exitY=0.5;exitDx=0;exitDy=0;entryX=0.922;entryY=-0.068;entryDx=0;entryDy=0;entryPerimeter=0;" edge="1" parent="1" source="2nSmwBfmjp6PG5sgdiVy-12" target="xdt5J9YczZUY0hBb_yy5-4">
          <mxGeometry relative="1" as="geometry" />
        </mxCell>
        <mxCell id="2nSmwBfmjp6PG5sgdiVy-30" style="edgeStyle=orthogonalEdgeStyle;rounded=0;orthogonalLoop=1;jettySize=auto;html=1;exitX=0.5;exitY=1;exitDx=0;exitDy=0;" edge="1" parent="1" source="2nSmwBfmjp6PG5sgdiVy-12">
          <mxGeometry relative="1" as="geometry">
            <mxPoint x="676.689655172414" y="440" as="targetPoint" />
          </mxGeometry>
        </mxCell>
        <mxCell id="2nSmwBfmjp6PG5sgdiVy-12" value="歩きスマホをやめた" style="rhombus;whiteSpace=wrap;html=1;" vertex="1" parent="1">
          <mxGeometry x="527" y="375" width="300" height="40" as="geometry" />
        </mxCell>
        <mxCell id="2nSmwBfmjp6PG5sgdiVy-13" value="歩きスマホをやめた" style="rhombus;whiteSpace=wrap;html=1;" vertex="1" parent="1">
          <mxGeometry x="300" y="50" width="300" height="40" as="geometry" />
        </mxCell>
        <mxCell id="2nSmwBfmjp6PG5sgdiVy-15" value="Yes" style="text;html=1;align=center;verticalAlign=middle;resizable=0;points=[];autosize=1;strokeColor=none;fillColor=none;" vertex="1" parent="1">
          <mxGeometry x="240" y="40" width="40" height="30" as="geometry" />
        </mxCell>
        <mxCell id="2nSmwBfmjp6PG5sgdiVy-16" value="No" style="text;html=1;align=center;verticalAlign=middle;resizable=0;points=[];autosize=1;strokeColor=none;fillColor=none;" vertex="1" parent="1">
          <mxGeometry x="414" y="98" width="40" height="30" as="geometry" />
        </mxCell>
        <mxCell id="2nSmwBfmjp6PG5sgdiVy-26" value="" style="endArrow=none;html=1;rounded=0;exitX=1;exitY=0.5;exitDx=0;exitDy=0;" edge="1" parent="1" source="vtQGRSDcGjtU6G57dhHK-21">
          <mxGeometry width="50" height="50" relative="1" as="geometry">
            <mxPoint x="970" y="240" as="sourcePoint" />
            <mxPoint x="990" y="290" as="targetPoint" />
            <Array as="points">
              <mxPoint x="990" y="220" />
            </Array>
          </mxGeometry>
        </mxCell>
        <mxCell id="2nSmwBfmjp6PG5sgdiVy-27" value="" style="endArrow=none;html=1;rounded=0;exitX=1;exitY=0.5;exitDx=0;exitDy=0;" edge="1" parent="1">
          <mxGeometry width="50" height="50" relative="1" as="geometry">
            <mxPoint x="970" y="150" as="sourcePoint" />
            <mxPoint x="990" y="220" as="targetPoint" />
            <Array as="points">
              <mxPoint x="990" y="150" />
            </Array>
          </mxGeometry>
        </mxCell>
        <mxCell id="2nSmwBfmjp6PG5sgdiVy-29" value="Yes" style="text;html=1;align=center;verticalAlign=middle;resizable=0;points=[];autosize=1;strokeColor=none;fillColor=none;" vertex="1" parent="1">
          <mxGeometry x="487" y="370" width="40" height="30" as="geometry" />
        </mxCell>
        <mxCell id="2nSmwBfmjp6PG5sgdiVy-31" value="No" style="text;html=1;align=center;verticalAlign=middle;resizable=0;points=[];autosize=1;strokeColor=none;fillColor=none;" vertex="1" parent="1">
          <mxGeometry x="670" y="410" width="40" height="30" as="geometry" />
        </mxCell>
        <mxCell id="2nSmwBfmjp6PG5sgdiVy-32" value="諦める" style="text;html=1;align=center;verticalAlign=middle;resizable=0;points=[];autosize=1;strokeColor=none;fillColor=none;" vertex="1" parent="1">
          <mxGeometry x="647" y="435" width="60" height="30" as="geometry" />
        </mxCell>
      </root>
    </mxGraphModel>
  </diagram>
</mxfile>
